<?xml version="1.0" encoding="utf-8"?>
<!-- Generator: Adobe Illustrator 27.9.0, SVG Export Plug-In . SVG Version: 6.00 Build 0)  -->
<svg version="1.1" id="Capa_1" xmlns="http://www.w3.org/2000/svg" xmlns:xlink="http://www.w3.org/1999/xlink" x="0px" y="0px"
	 viewBox="0 0 384 512" style="enable-background:new 0 0 384 512;" xml:space="preserve">
<style type="text/css">
	.st0{fill:#FFFFFF;}
</style>
<path class="st0" d="M215.7,499.2C267,435,384,279.4,384,192C384,86,298,0,192,0S0,86,0,192c0,87.4,117,243,168.3,307.2
	C180.6,514.5,203.4,514.5,215.7,499.2L215.7,499.2z M192,50.8c78,0,141.2,63.2,141.2,141.2S270,333.2,192,333.2S50.8,270,50.8,192
	S114,50.8,192,50.8z"/>
<g>
	<circle class="st0" cx="192" cy="184.2" r="62.4"/>
	<rect x="40" y="175.2" class="st0" width="294" height="18"/>
</g>
</svg>
